<svg xmlns="http://www.w3.org/2000/svg" xmlns:xlink="http://www.w3.org/1999/xlink" viewBox="0 0 84 68"><g><defs><linearGradient id="idss12488534846_1g548387602" x1="5.551115123125783e-17" x2="1" y1="0.9779612710815324" y2="0.02203872891846753"><stop offset="0" stop-color="rgb(239,154,0)" stop-opacity="1"></stop><stop offset="1" stop-color="rgb(254,204,47)" stop-opacity="1"></stop></linearGradient></defs><path d="M 19.814 31.797 C 19.92 40.521 19.737 43.415 17.954 47.285 C 16.17 51.156 11.288 52.414 9.252 52.48 C 7.53 52.538 4.214 52.504 4.793 51.528 C 4.915 51.322 5.271 51.05 5.766 50.669 C 7.466 49.363 10.809 46.794 11.99 41.376 C 12.479 39.129 12.71 36.411 12.777 33.521 C 11.93 34.056 11.114 34.638 10.333 35.265 C 9.965 35.554 9.703 35.76 9.512 35.855 C 8.747 36.236 7.791 36.045 7.382 34.522 C 6.972 32.998 6.972 32.563 8.256 31.366 L 8.369 31.26 C 9.171 30.512 10.434 29.336 12.725 27.775 C 12.612 24.627 12.385 21.504 12.149 18.758 C 12.07 17.859 12.003 17.075 11.945 16.391 L 11.869 15.502 C 8.61 16.312 6.776 17.685 6.066 19.457 C 5.806 20.104 5.679 20.681 5.574 21.16 C 5.342 22.212 5.213 22.798 4.02 22.627 C 2.802 22.452 -0.427 20.753 0.049 16.439 C 0.525 12.125 6.982 7.789 14.632 6.797 C 23.104 5.7 25.771 5.348 29.916 3.456 C 32.703 2.185 34.032 1.193 34.804 0.616 C 35.373 0.191 35.64 -0.008 35.966 0.071 C 36.78 0.271 37.142 7.428 32.94 10.35 C 29.357 12.844 24.043 13.616 18.309 14.437 C 18.531 15.923 19.038 19.557 19.405 23.872 C 24.397 21.408 30.307 19.734 31.316 20.919 C 32.381 22.171 31.917 24.756 31.644 25.844 C 31.371 26.933 30.825 28.51 29.705 28.756 C 29.448 28.811 28.958 28.849 28.289 28.901 C 26.446 29.043 23.241 29.289 19.783 30.314 C 19.798 30.81 19.808 31.304 19.814 31.797 Z M 42.562 34.342 C 43.935 33.799 45.493 33.183 46.142 33.665 C 47.238 34.476 45.434 40.151 43.868 40.748 C 42.833 41.141 42.081 41.338 38.223 42.35 L 37.941 42.423 L 37.408 42.564 C 34.286 43.389 31.629 44.09 31.581 42.287 C 31.551 41.178 31.979 38.273 32.482 34.865 C 32.836 32.465 33.227 29.817 33.52 27.369 C 33.879 24.375 34.119 21.712 34.323 19.448 C 34.689 15.391 34.939 12.62 35.55 11.534 C 36.627 9.622 39.457 8.754 40.705 8.541 C 41.953 8.329 43.344 8.358 43.505 9.457 C 43.748 11.117 42.845 17.726 41.658 23.426 C 40.47 29.127 38.807 35.737 38.807 35.737 C 38.807 35.737 40.236 35.194 41.543 34.732 C 41.857 34.621 42.203 34.484 42.562 34.342 Z M 51.842 7.591 C 53.939 7.512 55.149 5.5 55.08 3.703 C 55.013 1.908 52.824 -0.022 50.728 0.058 C 48.631 0.137 47.42 2.192 47.486 3.987 C 47.554 5.783 49.746 7.668 51.842 7.591 Z M 14.497 61.712 C 15.305 60.488 17.651 60.064 19.08 61.002 C 20.507 61.939 20.482 63.883 19.673 65.107 C 18.864 66.33 16.536 66.724 15.107 65.786 C 13.678 64.848 13.689 62.935 14.497 61.712 Z M 53.452 11.038 C 52.657 9.808 48.983 9.001 47.966 9.364 C 47.084 9.678 47.205 10.656 47.316 11.555 C 47.351 11.831 47.384 12.099 47.387 12.338 C 47.42 14.77 46.925 19.711 46.427 23.359 C 46.262 24.572 46.056 25.673 45.873 26.655 C 45.506 28.626 45.228 30.119 45.537 31.076 C 46 32.511 47.957 33.723 50.155 33.806 C 52.213 33.885 53.003 33.793 52.963 33.062 C 52.946 32.754 52.808 32.478 52.63 32.12 C 52.311 31.482 51.862 30.582 51.736 28.782 C 51.598 26.808 52.123 24.028 52.618 21.411 C 52.828 20.301 53.032 19.219 53.178 18.24 C 53.245 17.789 53.314 17.348 53.381 16.922 L 53.381 16.918 C 53.801 14.243 54.137 12.095 53.452 11.038 Z M 65.579 14.498 C 67.119 13.124 70.848 10.343 75.948 10.206 C 82.735 10.023 84.179 15.868 83.932 20.184 C 83.686 24.498 80.769 30.805 77.022 34.001 C 73.972 36.604 70.005 38.261 66.068 38.128 C 65.04 43.908 63.236 48.091 62.557 49.466 C 61.576 51.454 60.531 53.566 58.859 53.377 C 57.819 53.26 56.634 52.922 55.588 51.878 C 54.777 51.069 55.263 50.006 55.798 48.838 C 55.952 48.5 56.111 48.154 56.243 47.803 C 56.305 47.638 56.379 47.455 56.462 47.248 C 57.094 45.689 58.271 42.779 59.017 35.975 C 56.707 34.641 55.197 32.993 54.758 31.719 C 54.082 29.76 54.758 28.598 55.403 28.934 C 55.519 28.995 55.677 29.154 55.895 29.375 C 56.485 29.971 57.519 31.014 59.382 31.761 C 59.831 24.925 59.456 20.201 59.273 18.285 C 59.214 17.665 59.087 17.092 58.971 16.57 C 58.702 15.362 58.494 14.422 59.319 13.769 C 60.139 13.121 64.16 12.107 64.979 13.019 C 65.175 13.24 65.381 13.737 65.58 14.498 Z M 66.739 32.412 C 71.672 31.46 74.549 27.659 75.641 25.622 C 76.901 23.272 77.145 18.852 74.719 18.025 C 72.294 17.199 70.387 18.125 68.394 19.815 C 67.631 20.462 67.018 20.988 66.547 21.452 C 66.702 23.671 66.792 26.496 66.811 29.547 C 66.818 30.502 66.794 31.458 66.739 32.411 Z M 47.832 51.526 C 49.201 51.771 51.833 50.781 51.835 46.999 C 51.835 43.545 50.221 42.265 48.299 42.183 C 46.376 42.101 40.98 45.209 38.811 52.708 C 36.642 60.207 39.139 63.631 42.247 64.244 C 45.355 64.858 47.074 62.533 47.074 62.533 C 47.074 62.533 47.729 63.512 49.364 63.429 C 51.001 63.347 51.167 62.776 50.756 61.881 C 50.344 60.985 50.624 55.532 50.624 55.532 C 50.624 55.532 51.569 55.087 51.525 54.312 C 51.48 53.538 51.206 52.425 49.202 52.629 C 47.197 52.833 43.801 53.524 43.924 55.604 C 44.047 57.683 44.743 58.62 45.563 58.253 C 46.084 58.014 46.58 57.723 47.045 57.386 C 47.045 57.386 45.317 61.146 43.599 60.332 C 41.881 59.516 41.718 56.99 42.576 54.218 C 43.435 51.447 46.226 46.581 47.344 46.354 C 48.106 46.2 47.898 47.25 47.279 48.021 C 46.391 49.129 46.464 51.282 47.833 51.526 Z M 36.151 50.493 C 36.15 54.276 33.517 55.266 32.149 55.021 C 30.781 54.777 30.707 52.622 31.598 51.517 C 32.217 50.744 32.429 49.695 31.663 49.849 C 30.546 50.075 27.755 54.941 26.896 57.712 C 26.037 60.485 26.2 63.011 27.918 63.826 C 29.636 64.641 31.363 60.88 31.363 60.88 C 30.9 61.217 30.403 61.508 29.882 61.747 C 29.063 62.114 28.366 61.177 28.243 59.099 C 28.121 57.019 31.516 56.326 33.52 56.123 C 35.525 55.92 35.798 57.032 35.843 57.807 C 35.889 58.581 34.944 59.026 34.944 59.026 C 34.944 59.026 34.663 64.479 35.075 65.375 C 35.487 66.271 35.323 66.841 33.684 66.924 C 32.045 67.007 31.39 66.027 31.39 66.027 C 31.39 66.027 29.672 68.352 26.564 67.739 C 23.455 67.126 20.958 63.702 23.128 56.203 C 25.296 48.704 30.693 45.595 32.616 45.678 C 34.538 45.759 36.151 47.04 36.151 50.494 Z" fill="url(#idss12488534846_1g548387602)"></path></g></svg>