<svg xmlns="http://www.w3.org/2000/svg" xmlns:xlink="http://www.w3.org/1999/xlink" viewBox="0 0 247 64"><path d="M 36.945 10.453 C 32.973 12.888 29.944 10.843 29.944 10.843 L 28.98 10.389 C 27.125 9.546 22.951 7.573 19.481 5.997 L 17.237 5.003 C 12.564 2.934 10.567 6.64 10.567 6.64 C 14.201 8.136 14.584 10.293 14.531 11.31 C 14.529 11.458 14.513 11.604 14.486 11.749 C 11.097 12.525 7.985 14.307 5.512 16.888 C 1.825 20.685 0 25.52 0 31.418 C 0 37.314 1.818 42.326 5.46 46.146 C 9.101 49.965 13.843 51.858 19.668 51.85 C 24.903 51.85 29.196 50.65 32.651 48.222 L 32.651 30.32 L 24.336 30.32 L 24.336 43.098 C 23.097 43.605 21.774 43.84 20.447 43.79 C 16.841 43.79 14.007 42.645 11.906 40.298 C 10.854 39.112 10.036 37.717 9.497 36.192 C 8.959 34.667 8.705 33.045 8.75 31.418 C 8.7 29.785 8.972 28.159 9.549 26.645 C 10.556 24.042 12.416 21.913 14.785 20.653 C 15.542 20.249 16.336 19.931 17.156 19.706 L 17.709 15.043 L 17.874 15.251 C 18.061 15.482 18.435 15.958 19.146 16.89 L 19.302 17.098 L 20.049 18.027 C 20.311 18.37 20.596 18.752 20.911 19.181 C 21.566 20.047 22.217 20.916 22.863 21.79 C 24.185 20.91 25.619 20.23 27.117 19.77 C 29.211 19.165 31.081 19.309 32.509 20.406 C 33.697 21.408 34.526 22.812 34.859 24.384 C 36.098 22.976 39.681 16.467 36.943 10.453 Z M 20.881 10.038 L 28.65 13.579 C 28.65 13.579 22.212 20.302 20.879 10.038 Z M 22.847 0 L 21.293 3.978 C 21.293 3.978 21.369 4.074 26.647 6.429 C 26.107 3.888 24.767 1.62 22.847 0 Z M 208.851 46.504 C 208.852 45.614 209.096 44.744 209.554 43.998 C 210.016 43.246 210.68 42.662 211.461 42.318 C 212.236 41.976 213.089 41.882 213.914 42.048 C 214.746 42.231 215.513 42.658 216.126 43.282 C 217.334 44.583 217.691 46.526 217.032 48.214 C 216.7 49.038 216.152 49.744 215.453 50.243 C 214.15 51.132 212.497 51.203 211.131 50.427 C 209.77 49.647 208.913 48.148 208.888 46.506 L 208.851 46.506 Z M 222.895 18.234 C 222.548 17.921 222.135 17.702 221.692 17.597 C 221.245 17.493 220.784 17.493 220.338 17.597 C 219.654 17.737 219.045 18.146 218.633 18.742 C 218.228 19.347 218.049 20.09 218.131 20.827 C 218.212 21.579 218.566 22.267 219.119 22.744 C 219.651 23.222 220.332 23.469 221.026 23.437 L 221.326 23.437 C 222.687 23.345 223.794 22.234 223.958 20.795 C 224.011 20.313 223.934 19.824 223.734 19.387 C 223.539 18.941 223.252 18.546 222.895 18.232 Z M 236.859 18.304 C 236.151 17.671 235.203 17.431 234.302 17.659 C 233.618 17.784 233.004 18.179 232.582 18.765 C 232.184 19.373 232.006 20.113 232.081 20.85 C 232.159 21.589 232.502 22.267 233.038 22.744 C 233.567 23.22 234.245 23.467 234.938 23.435 L 235.243 23.435 C 236.603 23.34 237.708 22.232 237.876 20.795 C 237.931 20.32 237.853 19.838 237.652 19.41 C 237.473 18.98 237.202 18.601 236.859 18.304 Z" fill="rgb(30,248,117)"></path><path d="M 245.086 10.65 L 210.766 10.65 C 210.261 10.651 209.776 10.866 209.42 11.246 C 209.061 11.625 208.859 12.141 208.86 12.678 L 208.86 33.414 C 208.865 34.531 209.715 35.435 210.766 35.442 L 245.093 35.442 C 245.599 35.441 246.085 35.227 246.442 34.847 C 246.8 34.466 247 33.95 247 33.413 L 247 12.726 C 247.005 12.18 246.803 11.655 246.438 11.27 C 246.26 11.083 246.05 10.935 245.818 10.834 C 245.588 10.721 245.339 10.658 245.086 10.65 Z M 226.478 28.552 C 226.179 29.244 225.733 29.854 225.177 30.334 C 224.618 30.816 223.967 31.163 223.27 31.352 C 221.985 31.755 220.633 31.856 219.307 31.646 C 217.969 31.445 216.691 30.925 215.568 30.126 L 215.47 30.046 L 217.018 27.51 C 217.55 27.781 218.05 28.043 218.574 28.258 C 219.653 28.68 220.828 28.735 221.939 28.418 C 222.993 28.165 223.747 27.178 223.764 26.03 C 223.779 25.765 223.779 25.499 223.764 25.234 C 222.859 26.206 221.591 26.697 220.309 26.571 C 219.05 26.566 217.834 26.086 216.877 25.218 C 216.221 24.68 215.696 23.985 215.343 23.189 C 214.992 22.395 214.813 21.528 214.819 20.651 C 214.675 18.406 215.73 16.266 217.55 15.114 C 218.255 14.666 219.048 14.394 219.868 14.318 C 220.673 14.239 221.485 14.351 222.246 14.645 C 222.874 14.851 223.098 15.066 223.779 15.949 L 223.779 14.461 L 227.115 14.461 C 227.121 14.525 227.121 14.589 227.115 14.653 L 227.115 25.218 C 227.141 26.366 226.923 27.506 226.478 28.552 Z M 241.077 25.298 C 241.101 26.424 240.894 27.543 240.471 28.576 C 239.861 29.972 238.691 31.001 237.286 31.376 C 235.992 31.779 234.632 31.879 233.299 31.67 C 231.96 31.458 230.682 30.931 229.559 30.128 L 229.486 30.048 C 230.008 29.189 230.51 28.362 230.981 27.565 C 231.662 27.859 232.282 28.202 232.941 28.416 C 233.915 28.736 234.957 28.736 235.932 28.416 C 236.442 28.288 236.901 27.99 237.24 27.565 C 237.57 27.126 237.754 26.584 237.763 26.022 L 237.763 25.226 C 237.609 25.4 237.442 25.56 237.263 25.704 C 236.711 26.14 236.061 26.414 235.377 26.499 C 233.478 26.914 231.516 26.212 230.24 24.661 C 228.797 23.002 228.344 20.627 229.065 18.502 C 229.585 16.466 231.132 14.909 233.075 14.469 C 234.104 14.188 235.189 14.246 236.186 14.637 C 236.816 14.853 237.349 15.309 237.682 15.917 L 237.682 14.493 L 240.994 14.493 C 241.024 14.552 241.049 14.613 241.069 14.675 C 241.107 18.224 241.107 21.749 241.077 25.299 Z" fill="rgb(30,248,117)"></path><path d="M 108.728 21.482 C 104.713 21.482 101.729 22.898 99.823 25.698 L 99.552 25.698 C 97.72 22.898 94.782 21.482 90.676 21.482 C 86.57 21.482 83.751 22.866 81.873 25.619 L 81.396 25.619 L 80.647 22.285 L 74.276 22.285 L 74.276 51.07 L 82.263 51.07 L 82.263 36.208 C 82.196 34.386 82.724 32.596 83.759 31.141 C 84.266 30.469 84.921 29.938 85.665 29.597 C 86.415 29.245 87.233 29.09 88.051 29.142 C 91.685 29.142 93.518 31.219 93.518 35.437 L 93.518 51.07 L 101.511 51.07 L 101.511 35.541 C 101.478 33.896 102.009 32.295 103.007 31.037 C 104.059 29.814 105.53 29.092 107.088 29.032 C 107.854 29.029 108.615 29.174 109.332 29.461 C 110.051 29.757 110.707 30.2 111.263 30.766 C 112.287 32.061 112.799 33.726 112.691 35.413 L 112.691 50.992 L 120.693 50.992 L 120.693 33.488 C 120.693 29.859 119.613 26.942 117.455 24.736 C 115.271 22.547 112.362 21.482 108.727 21.482 Z M 152.658 25.992 C 150.101 22.984 146.715 21.48 142.502 21.48 C 141.042 21.439 139.592 21.752 138.263 22.395 C 136.931 23.032 135.75 23.978 134.808 25.163 L 134.404 25.163 L 134.404 11.139 L 126.603 11.139 L 126.603 50.992 L 131.749 50.992 L 132.924 47.307 L 133.401 47.307 C 134.338 48.761 135.631 49.914 137.141 50.642 C 138.821 51.462 140.653 51.872 142.502 51.842 C 146.689 51.842 150.062 50.41 152.613 47.546 C 153.887 46.161 154.887 44.519 155.553 42.717 C 156.234 40.921 156.557 38.995 156.503 37.059 C 156.611 32.982 155.234 29.017 152.658 25.992 Z M 148.875 38.189 C 148.531 39.953 147.618 41.534 146.295 42.661 C 144.973 43.787 143.322 44.387 141.627 44.357 C 140.66 44.389 139.698 44.187 138.816 43.766 C 137.701 43.273 136.716 42.501 135.943 41.515 C 134.195 39.295 133.765 36.223 134.829 33.558 C 135.389 32.145 136.331 30.941 137.537 30.098 C 138.748 29.247 140.175 28.808 141.627 28.84 C 143.094 28.808 144.534 29.246 145.763 30.098 C 146.988 30.948 147.941 32.175 148.494 33.614 C 149.052 35.064 149.184 36.659 148.875 38.19 Z M 169.112 11.136 L 161.312 11.136 L 161.312 50.992 L 169.112 50.992 Z M 194.157 22.275 L 187.943 42.467 L 187.539 42.467 L 180.897 22.275 L 172.522 22.275 L 183.404 51.197 C 182.655 54.904 180.696 56.765 177.659 56.765 C 176.458 56.791 175.264 56.556 174.152 56.074 L 173.621 56.074 L 173.621 63.035 C 175.194 63.626 176.844 63.95 178.512 63.998 C 181.9 63.998 184.495 62.979 186.357 60.958 C 188.219 58.938 189.895 55.971 191.428 51.992 L 202.585 22.275 Z M 69.009 43.651 C 68.722 43.763 68.419 43.834 68.113 43.866 C 67.943 43.864 67.775 43.837 67.612 43.786 C 67.451 43.722 67.306 43.623 67.186 43.493 C 66.974 43.254 66.834 42.955 66.782 42.632 C 66.702 42.157 66.66 41.675 66.655 41.192 L 66.655 22.28 L 59.73 22.28 L 59.73 24.994 C 57.726 22.837 54.061 21.874 54.061 21.874 L 53.963 21.874 C 53.881 21.843 53.796 21.825 53.709 21.819 L 53.664 21.819 L 53.284 21.739 L 53.058 21.683 L 52.813 21.635 C 52.513 21.581 52.206 21.555 51.885 21.523 C 51.668 21.507 51.451 21.507 51.234 21.523 L 50.808 21.523 C 46.591 21.523 43.205 23.027 40.653 26.035 C 38.066 29.055 36.68 33.021 36.786 37.102 C 36.741 39.035 37.056 40.957 37.713 42.76 C 38.377 44.563 39.365 46.211 40.622 47.613 C 43.18 50.47 46.605 51.91 50.725 51.91 C 51.225 51.91 51.724 51.885 52.221 51.83 L 52.498 51.83 C 53.088 51.768 53.673 51.662 54.248 51.512 C 54.361 51.489 54.471 51.455 54.576 51.408 C 55.226 51.21 55.855 50.944 56.455 50.613 L 56.709 50.478 C 56.911 50.366 57.083 50.238 57.284 50.126 L 57.509 49.968 C 57.659 49.866 57.809 49.754 57.935 49.651 L 58.137 49.459 C 58.19 49.459 58.19 49.411 58.263 49.357 C 58.328 49.291 58.396 49.229 58.467 49.173 L 58.638 49.006 C 58.714 48.958 58.765 48.878 58.84 48.822 C 58.916 48.768 59.14 48.474 59.289 48.29 C 59.342 48.234 59.394 48.155 59.44 48.098 C 59.587 47.893 59.745 47.701 59.894 47.486 L 59.97 47.382 L 60.396 47.382 L 60.396 47.597 C 60.402 47.687 60.419 47.776 60.447 47.861 C 60.447 47.941 60.447 47.995 60.492 48.075 C 60.52 48.143 60.538 48.216 60.545 48.29 C 60.545 48.362 60.59 48.434 60.62 48.504 L 60.696 48.744 C 60.696 48.798 60.696 48.846 60.77 48.958 C 60.845 49.07 60.852 49.157 60.896 49.253 L 61.001 49.435 C 61.001 49.491 61.077 49.571 61.098 49.627 L 61.173 49.755 C 61.205 49.826 61.248 49.89 61.301 49.944 L 61.577 50.344 C 61.67 50.466 61.771 50.582 61.877 50.693 C 62.624 51.488 63.955 51.893 65.914 51.893 L 66.341 51.893 C 66.517 51.888 66.692 51.869 66.865 51.838 L 67.314 51.838 L 67.545 51.782 C 67.696 51.763 67.847 51.73 67.994 51.68 L 68.219 51.624 L 68.442 51.576 L 68.674 51.496 L 68.824 51.44 L 69.026 51.36 C 69.203 51.289 69.378 51.209 69.549 51.122 L 69.699 51.042 L 69.699 43.595 L 68.951 43.595 L 69.011 43.651 Z M 58.631 40.182 C 58.631 40.182 58.631 40.23 58.578 40.262 C 58.525 40.294 58.458 40.477 58.406 40.579 L 58.406 40.635 C 56.991 43.4 54.25 45.104 51.288 45.061 C 48.326 45.017 45.631 43.233 44.288 40.427 C 42.457 36.614 43.576 31.95 46.903 29.534 C 50.229 27.124 54.724 27.725 57.385 30.934 C 58.673 32.487 59.384 34.484 59.385 36.554 C 59.384 37.807 59.126 39.045 58.631 40.182 Z" fill="rgb(244,244,244)"></path></svg>