<svg xmlns="http://www.w3.org/2000/svg" xmlns:xlink="http://www.w3.org/1999/xlink" viewBox="0 0 39 42"><g><defs><path d="M 35.887 14.612 M 12.198 35.361 L 12.196 35.354 L 2.22 5.344 L 2.219 5.34 C 1.918 4.446 2.149 3.46 2.815 2.791 C 3.481 2.122 4.468 1.886 5.366 2.18 L 5.37 2.181 L 35.484 12.187 L 35.487 12.188 C 36.549 12.545 37.244 13.563 37.186 14.68 L 37.186 14.682 C 37.126 15.787 36.343 16.72 35.264 16.974 L 35.263 16.974 L 20.489 20.467 L 16.945 35.136 L 16.944 35.139 C 16.686 36.224 15.738 37.006 14.623 37.054 L 14.597 37.055 L 14.57 37.055 C 13.497 37.058 12.542 36.376 12.198 35.361 Z" id="a1035z"></path><filter id="a1037z" x="-39.0%" y="-47.7%" width="174.4%" height="191.8%" filterUnits="objectBoundingBox"><feOffset dx="0" dy="3.12" in="SourceAlpha" result="a1039z"></feOffset><feGaussianBlur stdDeviation="0" in="a1039z" result="a1040z"></feGaussianBlur><feColorMatrix color-interpolation-filters="sRGB" values="0 0 0 0 0   0 0 0 0 0   0 0 0 0 0  0 0 0 1 0" type="matrix" in="a1040z" result="a1041z"></feColorMatrix></filter></defs><g filter="url(#a1037z)"><use stroke-width="2.58" stroke="black" stroke-miterlimit="10" fill="black" fill-opacity="1" stroke-opacity="1" xlink:href="#a1035z" clip-path="url(#a1036z)"></use></g><use xlink:href="#a1035z" fill="rgb(255,255,255)" clip-path="url(#a1036z)" stroke-width="2.58" stroke="rgb(0,0,0)" stroke-miterlimit="10"></use></g></svg>