<svg xmlns="http://www.w3.org/2000/svg" fill-rule="evenodd" stroke-linejoin="round" stroke-miterlimit="2" clip-rule="evenodd" viewBox="0 0 1000 1000"><g transform="translate(-747.3 -556.8) scale(1.221)"><path fill="url(#a)" d="M612 456h819v819H612z"/><clipPath id="b"><path d="M612 456h819v819H612z"/></clipPath><g clip-path="url(#b)"><path fill="url(#c)" d="M1410 4522h1000v1000H1410z" transform="matrix(.819 0 0 .819 -536.238 -3249.16)"/><path fill="url(#d)" d="M746.84 178.708C850.905 251.609 919 372.415 919 509c0 222.422-180.578 403-403 403-132.586 0-250.304-64.166-323.766-163.113 251.091 106.545 555.248 28.247 586.272-345.173.094-1.133 33.644 4.636 52.813 8.013a7.252 7.252 0 0 0 7.931-9.997c-17.861-43.214-77.327-187.048-92.41-223.022z" transform="translate(653.854 502.841) scale(.7125)"/><path fill="url(#e)" d="M113.025 513.557A406.678 406.678 0 0 1 113 509c0-222.422 180.578-403 403-403 83.033 0 160.234 25.166 224.387 68.28l-152.6 195.322a7.265 7.265 0 0 0 4.725 11.668c19.485 2.711 54.889 7.758 54.817 8.635-27.401 335.929-389.545 335.291-534.304 123.652z" transform="translate(653.854 502.841) scale(.7125)"/></g></g><defs><linearGradient id="a" x1="0" x2="1" y1="0" y2="0" gradientTransform="rotate(62.504 27.277 986.38) scale(866.052)" gradientUnits="userSpaceOnUse"><stop offset="0" stop-color="#350b6f"/><stop offset="1" stop-color="#110c2a"/></linearGradient><linearGradient id="c" x1="0" x2="1" y1="0" y2="0" gradientTransform="matrix(515.018 928 -928 515.018 1714.98 4568)" gradientUnits="userSpaceOnUse"><stop offset="0" stop-color="#342872"/><stop offset="1" stop-color="#110c2a"/></linearGradient><linearGradient id="d" x1="0" x2="1" y1="0" y2="0" gradientTransform="rotate(121.743 347.523 364.173) scale(766.149)" gradientUnits="userSpaceOnUse"><stop offset="0" stop-color="#fff"/><stop offset="1" stop-color="#c6c1dc"/></linearGradient><linearGradient id="e" x1="0" x2="1" y1="0" y2="0" gradientTransform="rotate(118.839 265.841 228.603) scale(600.53)" gradientUnits="userSpaceOnUse"><stop offset="0" stop-color="#ff88fe"/><stop offset="1" stop-color="#ff67ff"/></linearGradient></defs></svg>